TITLE ""
FILE "DISC2Track10.mp3" MP3
  TRACK 01 AUDIO
    TITLE "DISC2Track10_01"
    INDEX 01 00:00:00
  TRACK 02 AUDIO
    TITLE "DISC2Track10_02"
    INDEX 01 00:02:46
  TRACK 03 AUDIO
    TITLE "DISC2Track10_03"
    INDEX 01 00:02:66
  TRACK 04 AUDIO
    TITLE "DISC2Track10_04"
    INDEX 01 00:06:13
  TRACK 05 AUDIO
    TITLE "DISC2Track10_05"
    INDEX 01 00:09:33
  TRACK 06 AUDIO
    TITLE "DISC2Track10_06"
    INDEX 01 00:12:45
  TRACK 07 AUDIO
    TITLE "DISC2Track10_07"
    INDEX 01 00:12:68
  TRACK 08 AUDIO
    TITLE "DISC2Track10_08"
    INDEX 01 00:16:52
  TRACK 09 AUDIO
    TITLE "DISC2Track10_09"
    INDEX 01 00:19:68
  TRACK 10 AUDIO
    TITLE "DISC2Track10_10"
    INDEX 01 00:22:75
  TRACK 11 AUDIO
    TITLE "DISC2Track10_11"
    INDEX 01 00:23:27
  TRACK 12 AUDIO
    TITLE "DISC2Track10_12"
    INDEX 01 00:26:37
  TRACK 13 AUDIO
    TITLE "DISC2Track10_13"
    INDEX 01 00:29:41
  TRACK 14 AUDIO
    TITLE "DISC2Track10_14"
    INDEX 01 00:32:48
  TRACK 15 AUDIO
    TITLE "DISC2Track10_15"
    INDEX 01 00:32:71
  TRACK 16 AUDIO
    TITLE "DISC2Track10_16"
    INDEX 01 00:35:75
  TRACK 17 AUDIO
    TITLE "DISC2Track10_17"
    INDEX 01 00:39:18
  TRACK 18 AUDIO
    TITLE "DISC2Track10_18"
    INDEX 01 00:42:30
  TRACK 19 AUDIO
    TITLE "DISC2Track10_19"
    INDEX 01 00:42:54
  TRACK 20 AUDIO
    TITLE "DISC2Track10_20"
    INDEX 01 00:46:26
  TRACK 21 AUDIO
    TITLE "DISC2Track10_21"
    INDEX 01 00:49:60
  TRACK 22 AUDIO
    TITLE "DISC2Track10_22"
    INDEX 01 00:53:10
  TRACK 23 AUDIO
    TITLE "DISC2Track10_23"
    INDEX 01 00:53:34
  TRACK 24 AUDIO
    TITLE "DISC2Track10_24"
    INDEX 01 00:56:40
  TRACK 25 AUDIO
    TITLE "DISC2Track10_25"
    INDEX 01 00:58:55
  TRACK 26 AUDIO
    TITLE "DISC2Track10_26"
    INDEX 01 01:00:63
  TRACK 27 AUDIO
    TITLE "DISC2Track10_27"
    INDEX 01 01:01:12
  TRACK 28 AUDIO
    TITLE "DISC2Track10_28"
    INDEX 01 01:04:73
  TRACK 29 AUDIO
    TITLE "DISC2Track10_29"
    INDEX 01 01:07:60
  TRACK 30 AUDIO
    TITLE "DISC2Track10_30"
    INDEX 01 01:10:40
  TRACK 31 AUDIO
    TITLE "DISC2Track10_31"
    INDEX 01 01:10:62
  TRACK 32 AUDIO
    TITLE "DISC2Track10_32"
    INDEX 01 01:14:15
  TRACK 33 AUDIO
    TITLE "DISC2Track10_33"
    INDEX 01 01:17:38
  TRACK 34 AUDIO
    TITLE "DISC2Track10_34"
    INDEX 01 01:20:52
  TRACK 35 AUDIO
    TITLE "DISC2Track10_35"
    INDEX 01 01:21:03
  TRACK 36 AUDIO
    TITLE "DISC2Track10_36"
    INDEX 01 01:24:37
  TRACK 37 AUDIO
    TITLE "DISC2Track10_37"
    INDEX 01 01:28:24
  TRACK 38 AUDIO
    TITLE "DISC2Track10_38"
    INDEX 01 01:32:01
  TRACK 39 AUDIO
    TITLE "DISC2Track10_39"
    INDEX 01 01:32:24
  TRACK 40 AUDIO
    TITLE "DISC2Track10_40"
    INDEX 01 01:35:27
  TRACK 41 AUDIO
    TITLE "DISC2Track10_41"
    INDEX 01 01:37:63
  TRACK 42 AUDIO
    TITLE "DISC2Track10_42"
    INDEX 01 01:40:18
  TRACK 43 AUDIO
    TITLE "DISC2Track10_43"
    INDEX 01 01:40:43
  TRACK 44 AUDIO
    TITLE "DISC2Track10_44"
    INDEX 01 01:42:23
  TRACK 45 AUDIO
    TITLE "DISC2Track10_45"
    INDEX 01 01:44:16
  TRACK 46 AUDIO
    TITLE "DISC2Track10_46"
    INDEX 01 01:46:03
